# xmcd
#
# Track frame offsets: 
#        150
#        17590
#        39560
#        55522
#        78492
#        96772
#        116697
#        136390
#
# Disc length: 2119 seconds
#
# Revision: 1
# Processed by: cddbd v1.5.1PL0 Copyright (c) Steve Scherf et al.
# Submitted via: ExactAudioCopy v0.95a5
#
DISCID=5d084508
DTITLE=Harri Stojka - Say Yes
DYEAR=1988
DGENRE=Jazz
TTITLE0=Say Yes
TTITLE1=Simple Song
TTITLE2=Funk Town
TTITLE3=Love Is All
TTITLE4=It's Just Another Day
TTITLE5=Isn't It Funny
TTITLE6=Under The Street
TTITLE7=Carneval For Dizzy
EXTD=
EXTT0=
EXTT1=
EXTT2=
EXTT3=
EXTT4=
EXTT5=
EXTT6=
EXTT7=
PLAYORDER=
